<?xml version="1.0" encoding="utf-8"?>
<!-- Generator: Adobe Illustrator 24.2.0, SVG Export Plug-In . SVG Version: 6.00 Build 0)  -->
<svg version="1.1" id="图层_1" xmlns="http://www.w3.org/2000/svg" xmlns:xlink="http://www.w3.org/1999/xlink" x="0px" y="0px"
	 viewBox="0 0 1136.69 283.46" style="enable-background:new 0 0 1136.69 283.46;" xml:space="preserve">
<style type="text/css">
	.st0{fill:#00BBB4;}
	.st1{fill:#FFFFFF;}
	.st2{fill:url(#SVGID_1_);}
	.st3{fill:url(#SVGID_2_);}
	.st4{font-family:'MicrosoftYaHei';}
	.st5{font-size:14px;}
	.st6{font-size:12px;}
	.st7{fill:#863399;}
	.st8{fill:url(#SVGID_3_);}
	.st9{fill:url(#SVGID_4_);}
	.st10{fill:url(#SVGID_5_);}
	.st11{fill:url(#SVGID_6_);}
</style>
<rect x="0.32" y="0.29" class="st0" width="1136.37" height="50.62"/>
<g>
	<g>
		<path class="st1" d="M212.61,46.41l-0.75-0.13c-0.5-0.09-0.97-0.22-1.4-0.4c-0.32-0.13-0.55-0.41-0.62-0.75
			c-0.07-0.34,0.03-0.68,0.27-0.93l0.16-0.17l0.05,0.04c0.43,0.31,0.91,0.54,1.42,0.7c0.52,0.15,1.09,0.23,1.69,0.23
			c0.82,0,1.45-0.13,1.9-0.37c0.44-0.24,0.65-0.58,0.65-1.02c0-0.32-0.09-0.56-0.29-0.74c-0.2-0.19-0.46-0.33-0.78-0.42
			c-0.32-0.09-0.75-0.18-1.27-0.26c-0.02,0-0.03-0.01-0.04-0.01c-0.03,0-0.05,0-0.07-0.01l-0.11-0.02c-0.76-0.11-1.4-0.23-1.88-0.37
			c-0.49-0.14-0.92-0.4-1.27-0.78c-0.35-0.38-0.53-0.92-0.53-1.61c0-0.61,0.17-1.14,0.49-1.56c0.33-0.43,0.81-0.76,1.43-0.98
			c0.61-0.22,1.36-0.33,2.23-0.33c0.41,0,0.82,0.04,1.22,0.11c0.4,0.08,0.8,0.19,1.19,0.34c0.31,0.12,0.53,0.37,0.61,0.68
			c0.08,0.31,0,0.63-0.21,0.88l-0.19,0.22l-0.05-0.03c-0.43-0.26-0.86-0.46-1.29-0.59c-0.43-0.13-0.86-0.2-1.28-0.2
			c-0.77,0-1.37,0.13-1.79,0.38c-0.41,0.25-0.62,0.59-0.62,1.04c0,0.32,0.1,0.55,0.31,0.73c0.21,0.18,0.49,0.32,0.81,0.4
			c0.33,0.09,0.8,0.18,1.39,0.28c0.02,0,0.04,0.01,0.06,0.01c0.02,0,0.04,0.01,0.07,0.01l0.17,0.03c0.7,0.12,1.28,0.26,1.75,0.42
			c0.48,0.17,0.88,0.44,1.2,0.81c0.32,0.37,0.49,0.89,0.49,1.53c0,0.61-0.17,1.13-0.51,1.55c-0.34,0.42-0.83,0.75-1.47,0.97
			c-0.63,0.22-1.41,0.33-2.3,0.33H212.61z"/>
		<path class="st1" d="M98.39,6.99V5.74h27.38v1.25c0,0.75-0.62,1.36-1.38,1.36h-15.96v2.98c0,0.61-0.01,1.19-0.03,1.73h12.17
			c1.27,0,2.31,1.02,2.31,2.27V26.1c0.08,3.22-1.56,4.8-4.94,4.74h-1.51c-1.47,0-2.65-1.17-2.65-2.61v0h2.87
			c1.42,0.06,2.1-0.62,2.04-2.04v-9.19c0-0.75-0.62-1.36-1.38-1.36h-9.05c-0.35,6.15-2.86,10.93-7.53,14.35
			c-0.99,0.73-2.41,0.03-2.41-1.19v0c2.37-2.47,3.93-4.86,4.69-7.17c0.84-2.33,1.25-5.6,1.23-9.82V8.35h-4.45
			C99.01,8.35,98.39,7.74,98.39,6.99z"/>
		<path class="st1" d="M130.74,6.14V5.13h15.43c3.09,0.04,6.14-0.24,9.17-0.85l0,1.38c0,0.67-0.5,1.24-1.18,1.35
			c-0.99,0.16-1.91,0.27-2.77,0.35c-1.17,0.1-2.64,0.15-4.41,0.15h-2.13v2.13h11.95v1.04c0,0.75-0.62,1.36-1.38,1.36h-10.56v6.29
			c2.55,4.24,6.44,7.52,11.67,9.85v0c0,1.15-1.19,1.94-2.27,1.49c-4.16-1.74-7.3-3.79-9.4-6.14v6.63c0,0.75-0.62,1.36-1.38,1.36
			h-2.44v-7.93c-2.05,2.3-5.18,4.32-9.37,6.08c-1.07,0.45-2.27-0.34-2.27-1.49v0c5.25-2.31,9.13-5.57,11.64-9.79v-6.35h-10.38
			c-0.76,0-1.38-0.61-1.38-1.36V9.63h11.76V7.5h-8.89C131.36,7.5,130.74,6.89,130.74,6.14z M129.63,15.62v-0.89h5.62v-1.79h1.52
			c1.02,0,1.85,0.81,1.85,1.82v3.68c0.06,2.45-1.2,3.65-3.8,3.59h-3.89c-0.76,0-1.38-0.61-1.38-1.36v-0.89h4.14
			c1.11,0.06,1.64-0.47,1.57-1.58v-1.22h-4.23C130.25,16.98,129.63,16.37,129.63,15.62z M151.08,22.03
			c-2.61,0.06-3.89-1.13-3.83-3.59v-3.68c0-1,0.83-1.82,1.85-1.82h1.55v1.79h5.59v0.89c0,0.75-0.62,1.36-1.38,1.36h-4.2v1.22
			c-0.06,1.12,0.45,1.64,1.54,1.58h4.14v0.89c0,0.75-0.62,1.36-1.38,1.36H151.08z"/>
		<path class="st1" d="M160.96,6.5V5.58h3.86V3.79h2.41c0.76,0,1.38,0.61,1.38,1.36v0.43h10.37V5.15c0-0.75,0.62-1.36,1.38-1.36
			h2.41v1.79h4.01V6.5c0,0.75-0.62,1.36-1.38,1.36h-2.63v9.45h4.85v0.95c0,0.75-0.62,1.36-1.38,1.36h-5.34
			c1.4,1.86,3.63,3.35,6.7,4.47v0c0,1.07-1.06,1.86-2.1,1.52c-1.65-0.53-3.05-1.13-4.2-1.8v1.46h-5.62v2.73h8.71
			c0.76,0,1.38,0.61,1.38,1.36v0.98h-23.8v-0.98c0-0.75,0.62-1.36,1.38-1.36h8.55v-2.73h-5.59v-1.46c-1.17,0.67-2.55,1.26-4.15,1.78
			c-1.06,0.34-2.15-0.41-2.15-1.51v0c3.03-1.09,5.26-2.58,6.7-4.47h-5.25c-0.76,0-1.38-0.61-1.38-1.36v-0.95h4.72V7.87h-2.47
			C161.58,7.87,160.96,7.25,160.96,6.5z M175.68,20.87v2.22h4.51c-1.3-0.91-2.46-2.07-3.49-3.47h-5.77
			c-1.09,1.46-2.26,2.61-3.52,3.47h4.51v-2.22H175.68z M168.62,7.87v1.85h10.37V7.87H168.62z M168.62,11.66v1.85h10.37v-1.85H168.62
			z M168.62,15.43v1.89h10.37v-1.89H168.62z"/>
		<path class="st1" d="M191.61,28.72V4.7h26.11v21.64c0.1,3.2-1.35,4.75-4.35,4.65h-19.45C192.64,31,191.61,29.98,191.61,28.72z
			 M195.53,27.11c0,0.75,0.62,1.36,1.38,1.36h14.98c1.34,0.02,2-0.66,1.98-2.04V7.2h-18.34V27.11z M197.1,13.55v-1.1h5.71V8.69h3.77
			v3.77h5.71v1.1c0,0.75-0.62,1.36-1.38,1.36h-4.33c0.04,4.01,1.96,7.29,5.77,9.82l0,0.26c0,1.04-1.13,1.69-2.06,1.19
			c-2.64-1.41-4.5-3.12-5.6-5.13c-1.06,2.02-2.9,3.74-5.54,5.14c-0.93,0.49-2.06-0.16-2.06-1.2v-0.36c3.79-2.55,5.68-5.8,5.68-9.73
			h-4.3C197.72,14.92,197.1,14.31,197.1,13.55z"/>
		<path class="st1" d="M145.56,46.41c-0.82,0-1.55-0.14-2.16-0.42c-0.62-0.28-1.11-0.69-1.45-1.2c-0.34-0.52-0.52-1.13-0.52-1.81
			v-2.82c0-0.72,0.17-1.36,0.51-1.91c0.34-0.55,0.82-0.98,1.44-1.28c0.61-0.3,1.34-0.45,2.14-0.45c0.66,0,1.29,0.12,1.85,0.36
			c0.56,0.24,1.04,0.58,1.42,1.01c0.38,0.44,0.64,0.95,0.77,1.52l0.02,0.09h-1.89l-0.02-0.05c-0.09-0.31-0.25-0.57-0.46-0.79
			c-0.22-0.22-0.48-0.39-0.77-0.51c-0.3-0.12-0.61-0.18-0.92-0.18c-0.46,0-0.87,0.09-1.21,0.27c-0.34,0.18-0.61,0.44-0.8,0.76
			c-0.19,0.33-0.28,0.71-0.28,1.15v2.82c0,0.4,0.1,0.75,0.29,1.04c0.19,0.3,0.47,0.53,0.82,0.69c0.35,0.17,0.77,0.25,1.24,0.25
			c0.46,0,0.87-0.09,1.21-0.26c0.34-0.17,0.61-0.42,0.8-0.74c0.19-0.32,0.28-0.72,0.28-1.17c0-0.19-0.15-0.34-0.34-0.34h-1.99v-1.43
			h3.26c0.48,0,0.86,0.39,0.86,0.86v0.88c0,0.72-0.17,1.36-0.51,1.91c-0.34,0.55-0.82,0.98-1.44,1.28
			C147.08,46.26,146.36,46.41,145.56,46.41z"/>
		<path class="st1" d="M109.01,46.31c-0.47,0-0.85-0.38-0.85-0.85v-7.99c0-0.47,0.38-0.85,0.85-0.85h6.66v1.42h-4.65
			c-0.61,0-1.11,0.5-1.11,1.11v1.64h4.89v1.42h-4.89v1.57c0,0.61,0.5,1.11,1.11,1.11h4.65v1.42H109.01z"/>
		<path class="st1" d="M152.72,46.31c-0.47,0-0.85-0.38-0.85-0.85v-7.99c0-0.47,0.38-0.85,0.85-0.85h6.66v1.42h-4.65
			c-0.61,0-1.11,0.5-1.11,1.11v1.64h4.89v1.42h-4.89v1.57c0,0.61,0.5,1.11,1.11,1.11h4.65v1.42H152.72z"/>
		<path class="st1" d="M169.46,46.3c-0.51,0-1-0.24-1.31-0.65l-4.8-6.24v6.88h-1.74v-9.69h0.75c0.51,0,1.01,0.24,1.32,0.65
			l4.82,6.33v-6.99h1.74v9.69H169.46z"/>
		<path class="st1" d="M125.79,46.3c-0.51,0-1-0.24-1.31-0.65l-4.8-6.24v6.88h-1.74v-9.69h0.75c0.51,0,1.01,0.24,1.32,0.65
			l4.82,6.33v-6.99h1.74v9.69H125.79z"/>
		<path class="st1" d="M191.38,46.31v-6.36l-2.39,4.57c-0.15,0.29-0.44,0.46-0.77,0.46h-0.17c-0.32,0-0.61-0.17-0.76-0.46
			l-2.39-4.45v6.23h-1.72v-9.69h0.63c0.61,0,1.17,0.34,1.46,0.88l2.57,4.81c0.06,0.11,0.16,0.17,0.28,0.17
			c0.12,0,0.23-0.06,0.28-0.17l2.57-4.81c0.29-0.54,0.85-0.88,1.46-0.88h0.63v9.69H191.38z"/>
		<rect x="195.79" y="36.62" class="st1" width="1.76" height="9.69"/>
		<path class="st1" d="M204.07,46.41c-0.74,0-1.46-0.15-2.12-0.45c-0.6-0.28-1.08-0.71-1.43-1.28c-0.34-0.55-0.51-1.19-0.51-1.91
			v-2.62c0-0.72,0.17-1.36,0.51-1.91c0.34-0.55,0.82-0.98,1.43-1.28c0.61-0.3,1.33-0.45,2.13-0.45c0.66,0,1.28,0.12,1.84,0.36
			c0.56,0.24,1.04,0.58,1.41,1.01c0.38,0.44,0.64,0.95,0.77,1.52l0.02,0.09h-1.24c-0.3,0-0.58-0.16-0.73-0.41
			c-0.09-0.15-0.19-0.29-0.32-0.41c-0.23-0.23-0.5-0.4-0.8-0.53c-0.31-0.12-0.63-0.19-0.95-0.19c-0.45,0-0.86,0.09-1.2,0.27
			c-0.34,0.18-0.6,0.44-0.79,0.76c-0.19,0.33-0.28,0.71-0.28,1.15v2.62c0,0.43,0.1,0.82,0.28,1.15c0.19,0.33,0.45,0.58,0.79,0.76
			c0.34,0.18,0.74,0.27,1.2,0.27c0.33,0,0.65-0.06,0.96-0.17c0.3-0.11,0.57-0.29,0.8-0.51c0.13-0.13,0.24-0.27,0.33-0.43
			c0.14-0.26,0.43-0.42,0.74-0.42h1.23l-0.02,0.09c-0.13,0.57-0.39,1.09-0.77,1.52c-0.38,0.44-0.86,0.78-1.42,1.01
			C205.35,46.29,204.73,46.41,204.07,46.41z"/>
		<path class="st1" d="M98.3,38.14h2.8c0.24,0,0.43,0.19,0.43,0.43v7.73h1.9v-7.73c0-0.24,0.19-0.43,0.43-0.43h2.8v-1.53H98.3V38.14
			z"/>
		<path class="st1" d="M136.11,46.31h2.29l-3.88-5.51c-0.12-0.17-0.1-0.39,0.04-0.54l3.35-3.64h-2.38l-3.52,4.09
			c-0.26,0.3-0.76,0.12-0.76-0.28v-3.8h-1.91v9.69h1.91v-2.12c0-0.22,0.08-0.43,0.23-0.59l1.19-1.29c0.19-0.2,0.51-0.18,0.67,0.04
			L136.11,46.31z"/>
		<path class="st1" d="M180.32,38.26c-0.33-0.53-0.81-0.94-1.42-1.23c-0.61-0.29-1.32-0.44-2.11-0.44c-0.8,0-1.5,0.15-2.11,0.44
			c-0.61,0.29-1.08,0.7-1.42,1.23c-0.33,0.53-0.5,1.15-0.5,1.85v2.71c0,0.7,0.17,1.32,0.5,1.85c0.33,0.53,0.81,0.94,1.42,1.23
			c0.61,0.29,1.32,0.44,2.11,0.44c0.8,0,1.5-0.15,2.11-0.44c0.61-0.29,1.08-0.7,1.42-1.23c0.33-0.53,0.5-1.15,0.5-1.85v-2.71
			C180.82,39.41,180.65,38.79,180.32,38.26z M179.14,42.34h-1.07c-0.22,0-0.4,0.18-0.4,0.4v2.02h-1.76v-2.02
			c0-0.22-0.18-0.4-0.4-0.4h-1.07v-1.76h1.07c0.22,0,0.4-0.18,0.4-0.4v-2.02h1.76v2.02c0,0.22,0.18,0.4,0.4,0.4h1.07V42.34z"/>
	</g>
	<g>
		<path class="st1" d="M14.06,8.26l25.99,35.77c0.43,0.59,1.3,0.59,1.73,0l4.82-6.63c0.54-0.75,0.54-1.76,0-2.51L26.64,7.44
			c-0.4-0.55-1.04-0.88-1.73-0.88h-10C14.05,6.56,13.54,7.55,14.06,8.26z"/>
		<path class="st1" d="M52.91,20.01l-0.17,0.23l-2.64,3.63l-1.4,1.93v0.01c-0.61,0.92-0.93,1.99-0.93,3.1c0,0.14,0.01,0.27,0.02,0.4
			l-0.29-0.4L30.49,5.49c-0.51-0.71-0.01-1.69,0.86-1.69h8.68c0.68,0,1.33,0.32,1.73,0.88L52.91,20.01z"/>
		<path class="st1" d="M60.27,37.4l4.82,6.63c0.43,0.59,1.3,0.59,1.73,0L92.8,8.26c0.51-0.7,0.01-1.69-0.86-1.69h-10
			c-0.68,0-1.32,0.33-1.73,0.88L60.27,34.9C59.73,35.64,59.73,36.66,60.27,37.4z"/>
		<path class="st1" d="M76.37,5.49L59.36,28.9l-0.29,0.4c0.01-0.14,0.02-0.27,0.02-0.4c0-1.13-0.34-2.22-0.96-3.15l-1.36-1.88
			l-2.64-3.63l-0.16-0.23L65.1,4.67c0.41-0.55,1.04-0.88,1.73-0.88h8.68C76.38,3.79,76.88,4.78,76.37,5.49z"/>
		<g>
			<g>
				<linearGradient id="SVGID_1_" gradientUnits="userSpaceOnUse" x1="48.6331" y1="41.8541" x2="58.2285" y2="41.8541">
					<stop  offset="0.15" style="stop-color:#FFFFFF"/>
					<stop  offset="0.85" style="stop-color:#FFFFFF"/>
				</linearGradient>
				<circle class="st2" cx="53.43" cy="41.85" r="4.8"/>
				<linearGradient id="SVGID_2_" gradientUnits="userSpaceOnUse" x1="48.6292" y1="27.213" x2="58.2305" y2="27.213">
					<stop  offset="0.15" style="stop-color:#FFFFFF"/>
					<stop  offset="0.85" style="stop-color:#FFFFFF"/>
				</linearGradient>
				<path class="st3" d="M53.43,33.69c1.5,0,2.89-0.68,3.8-1.87l0.17-0.24c0.54-0.79,0.82-1.73,0.82-2.69
					c0-0.96-0.28-1.89-0.82-2.68l-3.99-5.48l-3.98,5.48c-0.53,0.8-0.82,1.73-0.82,2.68c0,0.96,0.28,1.89,0.82,2.68l0.18,0.24
					C50.54,33.01,51.93,33.69,53.43,33.69z"/>
			</g>
		</g>
	</g>
</g>
<text transform="matrix(1 0 0 1 844.7353 40.5318)" class="st1 st4 st5">技术咨询：techsupport@10kgenomics.com</text>
<text transform="matrix(1 0 0 1 989.4052 19.201)" class="st1 st4 st6">服务电话：021-64160323</text>
<g>
	<g>
		<path class="st7" d="M748.66,224.82l-1.5-0.26c-0.99-0.17-1.92-0.44-2.78-0.79c-0.63-0.26-1.09-0.81-1.23-1.48
			c-0.14-0.67,0.06-1.36,0.54-1.85l0.33-0.33l0.1,0.07c0.85,0.61,1.8,1.08,2.82,1.39c1.03,0.31,2.15,0.46,3.36,0.46
			c1.62,0,2.88-0.25,3.77-0.74c0.87-0.49,1.29-1.15,1.29-2.03c0-0.64-0.19-1.12-0.57-1.48c-0.39-0.37-0.91-0.65-1.54-0.83
			c-0.64-0.18-1.49-0.36-2.51-0.51c-0.04-0.01-0.06-0.01-0.08-0.01c-0.05,0-0.1-0.01-0.14-0.02l-0.22-0.03
			c-1.52-0.22-2.77-0.46-3.74-0.74c-0.98-0.28-1.82-0.8-2.52-1.54c-0.7-0.75-1.06-1.82-1.06-3.19c0-1.21,0.33-2.25,0.98-3.1
			c0.65-0.85,1.6-1.5,2.83-1.94c1.22-0.44,2.71-0.66,4.42-0.66c0.82,0,1.64,0.08,2.43,0.22c0.79,0.15,1.59,0.37,2.36,0.66
			c0.62,0.24,1.06,0.72,1.22,1.35c0.16,0.62,0.01,1.26-0.41,1.74l-0.38,0.44l-0.1-0.06c-0.85-0.52-1.71-0.92-2.56-1.18
			c-0.84-0.26-1.7-0.39-2.55-0.39c-1.52,0-2.72,0.25-3.55,0.75c-0.82,0.49-1.22,1.17-1.22,2.07c0,0.63,0.2,1.09,0.61,1.44
			c0.43,0.36,0.97,0.63,1.6,0.8c0.66,0.18,1.58,0.36,2.75,0.55c0.04,0.01,0.08,0.02,0.11,0.02c0.04,0.01,0.09,0.01,0.13,0.02
			l0.34,0.05c1.38,0.23,2.55,0.52,3.48,0.84c0.94,0.33,1.74,0.87,2.38,1.6c0.64,0.74,0.97,1.76,0.97,3.03
			c0,1.21-0.34,2.24-1.02,3.08c-0.67,0.84-1.66,1.49-2.92,1.92c-1.26,0.43-2.79,0.65-4.56,0.65H748.66z"/>
		<path class="st7" d="M522.03,146.6v-2.48h54.32v2.48c0,1.49-1.23,2.7-2.75,2.7h-31.67v5.91c0,1.21-0.02,2.35-0.06,3.44h24.15
			c2.53,0,4.58,2.02,4.58,4.51v21.37c0.16,6.39-3.1,9.53-9.8,9.41h-3c-2.91,0-5.27-2.32-5.27-5.19l0,0h5.7
			c2.82,0.12,4.16-1.23,4.04-4.04v-18.22c0-1.49-1.23-2.7-2.75-2.7h-17.95c-0.7,12.2-5.68,21.69-14.93,28.48
			c-1.97,1.45-4.79,0.05-4.79-2.37v0c4.69-4.9,7.8-9.65,9.31-14.23c1.67-4.62,2.49-11.12,2.45-19.48v-6.88h-8.83
			C523.26,149.31,522.03,148.1,522.03,146.6z"/>
		<path class="st7" d="M586.22,144.91v-2h30.62c6.12,0.08,12.19-0.48,18.19-1.69v2.73c0,1.34-1,2.46-2.34,2.68
			c-1.96,0.31-3.8,0.54-5.5,0.68c-2.33,0.2-5.25,0.3-8.76,0.3h-4.23v4.22h23.7v2.06c0,1.49-1.23,2.7-2.75,2.7h-20.96v12.48
			c5.06,8.4,12.78,14.92,23.15,19.54l0,0c0,2.28-2.37,3.84-4.5,2.95c-8.26-3.46-14.48-7.52-18.65-12.18v13.16
			c0,1.49-1.23,2.7-2.75,2.7h-4.85v-15.74c-4.07,4.56-10.27,8.58-18.59,12.06c-2.13,0.89-4.5-0.67-4.5-2.95l0,0
			c10.41-4.58,18.11-11.06,23.09-19.42v-12.6h-20.59c-1.52,0-2.75-1.21-2.75-2.7v-2.06h23.33v-4.22h-17.65
			C587.45,147.62,586.22,146.41,586.22,144.91z M584.01,163.73v-1.76h11.15v-3.56h3.01c2.02,0,3.66,1.61,3.66,3.61v7.31
			c0.12,4.86-2.39,7.24-7.53,7.12h-7.73c-1.52,0-2.75-1.21-2.75-2.7v-1.76h8.21c2.21,0.12,3.25-0.92,3.12-3.14v-2.41h-8.4
			C585.24,166.43,584.01,165.22,584.01,163.73z M626.58,176.45c-5.19,0.12-7.72-2.25-7.59-7.12v-7.31c0-1.99,1.64-3.61,3.66-3.61
			h3.08v3.56h11.09v1.76c0,1.49-1.23,2.7-2.75,2.7h-8.34v2.41c-0.12,2.21,0.9,3.26,3.06,3.14h8.21v1.76c0,1.49-1.23,2.7-2.75,2.7
			H626.58z"/>
		<path class="st7" d="M646.17,145.64v-1.82h7.66v-3.56h4.79c1.52,0,2.75,1.21,2.75,2.7v0.85h20.58v-0.85c0-1.49,1.23-2.7,2.75-2.7
			h4.79v3.56h7.96v1.82c0,1.49-1.23,2.7-2.75,2.7h-5.22v18.76h9.61v1.88c0,1.49-1.23,2.7-2.75,2.7h-10.6
			c2.78,3.7,7.21,6.65,13.29,8.87l0,0c0,2.13-2.11,3.68-4.16,3.02c-3.28-1.06-6.05-2.24-8.33-3.57v2.9h-11.15v5.43h17.28
			c1.52,0,2.75,1.21,2.75,2.7v1.94H648.2v-1.94c0-1.49,1.23-2.7,2.75-2.7h16.97v-5.43h-11.09v-2.9c-2.32,1.33-5.06,2.5-8.23,3.53
			c-2.1,0.68-4.26-0.82-4.26-2.99l0,0c6-2.17,10.43-5.13,13.29-8.87h-10.42c-1.52,0-2.75-1.21-2.75-2.7v-1.88h9.37v-18.76h-4.91
			C647.4,148.34,646.17,147.13,646.17,145.64z M675.39,174.15v4.4h8.94c-2.57-1.81-4.88-4.1-6.92-6.88h-11.45
			c-2.16,2.89-4.49,5.19-6.98,6.88h8.94v-4.4H675.39z M661.36,148.34v3.68h20.58v-3.68H661.36z M661.36,155.88v3.68h20.58v-3.68
			H661.36z M661.36,163.36v3.74h20.58v-3.74H661.36z"/>
		<path class="st7" d="M706.99,189.73v-47.66h51.81v42.94c0.2,6.35-2.67,9.43-8.64,9.23h-38.6
			C709.04,194.24,706.99,192.22,706.99,189.73z M714.77,186.53c0,1.49,1.23,2.7,2.75,2.7h29.71c2.65,0.04,3.96-1.31,3.92-4.04
			v-38.18h-36.38V186.53z M717.89,159.63v-2.18h11.33v-7.48h7.47v7.48h11.33v2.18c0,1.49-1.23,2.7-2.75,2.7h-8.58
			c0.08,7.96,3.9,14.46,11.45,19.48v0.51c0,2.06-2.25,3.36-4.09,2.37c-5.23-2.81-8.93-6.2-11.1-10.18
			c-2.1,4.01-5.76,7.41-10.98,10.2c-1.84,0.98-4.08-0.31-4.08-2.37l0-0.71c7.51-5.07,11.27-11.5,11.27-19.3h-8.52
			C719.12,162.33,717.89,161.12,717.89,159.63z"/>
		<path class="st7" d="M615.61,224.82c-1.62,0-3.07-0.28-4.29-0.84c-1.24-0.56-2.21-1.36-2.89-2.39c-0.68-1.03-1.03-2.23-1.03-3.58
			v-5.59c0-1.43,0.34-2.7,1.01-3.79c0.67-1.09,1.63-1.94,2.85-2.54c1.22-0.59,2.65-0.89,4.25-0.89c1.32,0,2.55,0.24,3.67,0.71
			c1.12,0.47,2.06,1.15,2.82,2.01c0.75,0.87,1.27,1.88,1.53,3.02l0.04,0.18h-3.75l-0.03-0.1c-0.18-0.61-0.49-1.14-0.92-1.57
			c-0.43-0.44-0.95-0.78-1.53-1.01c-0.59-0.23-1.2-0.35-1.83-0.35c-0.91,0-1.72,0.18-2.41,0.54c-0.68,0.36-1.22,0.87-1.59,1.51
			c-0.37,0.65-0.56,1.41-0.56,2.28V218c0,0.78,0.19,1.48,0.57,2.06c0.38,0.59,0.93,1.05,1.62,1.37c0.7,0.33,1.53,0.49,2.45,0.49
			c0.91,0,1.72-0.17,2.41-0.51c0.68-0.34,1.21-0.83,1.58-1.47c0.37-0.64,0.56-1.42,0.56-2.31c0-0.37-0.3-0.68-0.68-0.68h-3.94v-2.83
			h6.47c0.95,0,1.72,0.77,1.72,1.71v1.74c0,1.43-0.34,2.7-1.01,3.8c-0.67,1.09-1.63,1.95-2.85,2.54
			C618.64,224.52,617.21,224.82,615.61,224.82z"/>
		<path class="st7" d="M543.09,224.62c-0.93,0-1.7-0.76-1.7-1.69v-15.84c0-0.93,0.76-1.7,1.7-1.7h13.22v2.82h-9.22
			c-1.22,0-2.21,0.99-2.21,2.21v3.25h9.71v2.82h-9.71v3.12c0,1.22,0.99,2.21,2.21,2.21h9.22v2.82H543.09z"/>
		<path class="st7" d="M629.83,224.62c-0.93,0-1.7-0.76-1.7-1.69v-15.84c0-0.93,0.76-1.7,1.7-1.7h13.22v2.82h-9.22
			c-1.22,0-2.21,0.99-2.21,2.21v3.25h9.71v2.82h-9.71v3.12c0,1.22,0.99,2.21,2.21,2.21h9.22v2.82H629.83z"/>
		<path class="st7" d="M663.03,224.61c-1.01,0-1.99-0.48-2.6-1.28l-9.52-12.37v13.65h-3.45v-19.22h1.48c1.02,0,2,0.49,2.62,1.3
			l9.55,12.57v-13.87h3.45v19.22H663.03z"/>
		<path class="st7" d="M576.4,224.61c-1.01,0-1.99-0.48-2.6-1.28l-9.52-12.37v13.65h-3.45v-19.22h1.48c1.02,0,2,0.49,2.62,1.3
			l9.55,12.57v-13.87h3.45v19.22H576.4z"/>
		<path class="st7" d="M706.53,224.62v-12.61l-4.74,9.06c-0.3,0.57-0.88,0.92-1.52,0.92h-0.33c-0.63,0-1.21-0.35-1.51-0.91
			l-4.73-8.83v12.37h-3.41v-19.23h1.25c1.21,0,2.32,0.67,2.9,1.74l5.11,9.55c0.11,0.21,0.32,0.34,0.56,0.34
			c0.24,0,0.45-0.13,0.57-0.34l5.11-9.55c0.57-1.07,1.68-1.74,2.9-1.74h1.25v19.23H706.53z"/>
		<rect x="715.28" y="205.39" class="st7" width="3.48" height="19.23"/>
		<path class="st7" d="M731.71,224.82c-1.47,0-2.89-0.3-4.22-0.88c-1.19-0.55-2.15-1.41-2.84-2.53c-0.67-1.09-1.01-2.36-1.01-3.79
			v-5.2c0-1.43,0.34-2.7,1.01-3.79c0.67-1.09,1.62-1.94,2.84-2.54c1.21-0.59,2.63-0.89,4.22-0.89c1.32,0,2.55,0.24,3.66,0.71
			c1.11,0.47,2.05,1.15,2.8,2.01c0.75,0.86,1.26,1.88,1.53,3.02l0.04,0.18h-2.46c-0.6,0-1.16-0.31-1.45-0.81
			c-0.17-0.29-0.38-0.57-0.64-0.82c-0.45-0.45-0.98-0.8-1.59-1.04c-0.61-0.24-1.24-0.37-1.89-0.37c-0.9,0-1.7,0.18-2.37,0.54
			c-0.67,0.36-1.2,0.87-1.57,1.51c-0.37,0.65-0.56,1.42-0.56,2.28v5.2c0,0.86,0.19,1.62,0.56,2.27c0.37,0.65,0.9,1.16,1.57,1.51
			c0.67,0.36,1.47,0.54,2.38,0.54c0.66,0,1.3-0.12,1.9-0.34c0.6-0.23,1.13-0.57,1.58-1.01c0.26-0.25,0.47-0.54,0.65-0.85
			c0.28-0.51,0.85-0.83,1.47-0.83h2.44l-0.04,0.18c-0.27,1.14-0.78,2.15-1.54,3.02c-0.75,0.86-1.7,1.54-2.81,2.01
			C734.24,224.58,733.02,224.82,731.71,224.82z"/>
		<path class="st7" d="M521.85,208.42h5.55c0.47,0,0.86,0.38,0.86,0.86v15.35h3.77v-15.35c0-0.47,0.38-0.86,0.86-0.86h5.55v-3.03
			h-16.59V208.42z"/>
		<path class="st7" d="M596.88,224.62h4.55l-7.69-10.93c-0.23-0.33-0.2-0.78,0.07-1.08l6.65-7.22h-4.73l-6.99,8.11
			c-0.52,0.6-1.51,0.24-1.51-0.56v-7.55h-3.79v19.23h3.79v-4.2c0-0.43,0.16-0.85,0.45-1.16l2.36-2.56c0.37-0.4,1.02-0.36,1.33,0.09
			L596.88,224.62z"/>
		<path class="st0" d="M684.59,208.65c-0.66-1.06-1.6-1.87-2.81-2.45c-1.21-0.58-2.61-0.87-4.2-0.87c-1.59,0-2.99,0.29-4.2,0.87
			c-1.21,0.58-2.15,1.39-2.81,2.45c-0.66,1.06-0.99,2.28-0.99,3.67v5.37c0,1.39,0.33,2.61,0.99,3.67c0.66,1.06,1.6,1.87,2.81,2.45
			c1.21,0.58,2.61,0.87,4.2,0.87c1.59,0,2.99-0.29,4.2-0.87c1.21-0.58,2.15-1.39,2.81-2.45c0.66-1.06,0.99-2.28,0.99-3.67v-5.37
			C685.58,210.93,685.25,209.71,684.59,208.65z M682.25,216.75h-2.13c-0.43,0-0.79,0.35-0.79,0.79v4.01h-3.49v-4.01
			c0-0.43-0.35-0.79-0.79-0.79h-2.13v-3.49h2.13c0.43,0,0.79-0.35,0.79-0.79v-4.01h3.49v4.01c0,0.43,0.35,0.79,0.79,0.79h2.13
			V216.75z"/>
	</g>
	<g>
		<path class="st7" d="M354.7,149.12l51.57,70.98c0.84,1.16,2.58,1.16,3.42,0l9.56-13.15c1.08-1.48,1.08-3.49,0-4.97l-39.58-54.47
			c-0.8-1.1-2.07-1.74-3.42-1.74h-19.84C354.68,145.76,353.68,147.72,354.7,149.12z"/>
		<path class="st7" d="M431.78,172.43l-0.33,0.45l-5.23,7.19l-2.78,3.83v0.01c-1.2,1.83-1.84,3.95-1.84,6.15
			c0,0.27,0.01,0.53,0.03,0.79l-0.58-0.79l-33.74-46.44c-1.02-1.41-0.02-3.36,1.71-3.36h17.23c1.35,0,2.63,0.64,3.42,1.74
			L431.78,172.43z"/>
		<path class="st0" d="M446.4,206.95l9.56,13.15c0.84,1.16,2.58,1.16,3.42,0l51.57-70.98c1.02-1.4,0.02-3.36-1.71-3.36h-19.84
			c-1.35,0-2.63,0.65-3.42,1.74l-39.58,54.47C445.32,203.46,445.32,205.47,446.4,206.95z"/>
		<path class="st0" d="M478.33,143.63l-33.74,46.44l-0.58,0.79c0.02-0.27,0.03-0.53,0.03-0.79c0-2.24-0.67-4.41-1.91-6.26
			l-2.71-3.74l-5.24-7.19l-0.32-0.45l22.11-30.43c0.81-1.1,2.07-1.74,3.42-1.74h17.23C478.35,140.27,479.35,142.22,478.33,143.63z"
			/>
		<g>
			<g>
				<g>
					<linearGradient id="SVGID_3_" gradientUnits="userSpaceOnUse" x1="423.3038" y1="215.7816" x2="442.3424" y2="215.7816">
						<stop  offset="0.15" style="stop-color:#00BBB4"/>
						<stop  offset="0.85" style="stop-color:#863399"/>
					</linearGradient>
					<circle class="st8" cx="432.82" cy="215.78" r="9.52"/>
				</g>
				<g>
					<linearGradient id="SVGID_4_" gradientUnits="userSpaceOnUse" x1="423.2963" y1="186.7318" x2="442.3465" y2="186.7318">
						<stop  offset="0.15" style="stop-color:#00BBB4"/>
						<stop  offset="0.85" style="stop-color:#863399"/>
					</linearGradient>
					<path class="st9" d="M432.82,199.59c2.98,0,5.73-1.35,7.55-3.72l0.34-0.47c1.06-1.58,1.64-3.43,1.64-5.34
						c0-1.91-0.56-3.74-1.62-5.31l-7.91-10.88l-7.9,10.87c-1.06,1.58-1.63,3.43-1.63,5.32c0,1.91,0.56,3.75,1.63,5.33l0.35,0.48
						C427.09,198.23,429.85,199.59,432.82,199.59z"/>
				</g>
			</g>
		</g>
	</g>
</g>
<rect x="0.31" y="60.02" class="st7" width="1136.37" height="50.62"/>
<g>
	<g>
		<path class="st1" d="M211.6,107.14l-0.75-0.13c-0.5-0.09-0.97-0.22-1.4-0.4c-0.32-0.13-0.55-0.41-0.62-0.75
			c-0.07-0.34,0.03-0.68,0.27-0.93l0.16-0.17l0.05,0.04c0.43,0.31,0.91,0.54,1.42,0.7c0.52,0.15,1.09,0.23,1.69,0.23
			c0.82,0,1.45-0.13,1.9-0.37c0.44-0.24,0.65-0.58,0.65-1.02c0-0.32-0.09-0.56-0.29-0.74c-0.2-0.19-0.46-0.33-0.78-0.42
			c-0.32-0.09-0.75-0.18-1.27-0.26c-0.02,0-0.03-0.01-0.04-0.01c-0.03,0-0.05,0-0.07-0.01l-0.11-0.02c-0.76-0.11-1.4-0.23-1.88-0.37
			c-0.49-0.14-0.92-0.4-1.27-0.78c-0.35-0.38-0.53-0.92-0.53-1.61c0-0.61,0.17-1.14,0.49-1.56c0.33-0.43,0.81-0.76,1.43-0.98
			c0.61-0.22,1.36-0.33,2.23-0.33c0.41,0,0.82,0.04,1.22,0.11c0.4,0.08,0.8,0.19,1.19,0.34c0.31,0.12,0.53,0.37,0.61,0.68
			c0.08,0.31,0,0.63-0.21,0.88l-0.19,0.22l-0.05-0.03c-0.43-0.26-0.86-0.46-1.29-0.59c-0.43-0.13-0.86-0.2-1.28-0.2
			c-0.77,0-1.37,0.13-1.79,0.38c-0.41,0.25-0.62,0.59-0.62,1.04c0,0.32,0.1,0.55,0.31,0.73c0.21,0.18,0.49,0.32,0.81,0.4
			c0.33,0.09,0.8,0.18,1.39,0.28c0.02,0,0.04,0.01,0.06,0.01c0.02,0,0.04,0.01,0.07,0.01l0.17,0.03c0.7,0.12,1.28,0.26,1.75,0.42
			c0.48,0.17,0.88,0.44,1.2,0.81c0.32,0.37,0.49,0.89,0.49,1.53c0,0.61-0.17,1.13-0.51,1.55c-0.34,0.42-0.83,0.75-1.47,0.97
			c-0.63,0.22-1.41,0.33-2.3,0.33H211.6z"/>
		<path class="st1" d="M97.38,67.72v-1.25h27.38v1.25c0,0.75-0.62,1.36-1.38,1.36h-15.96v2.98c0,0.61-0.01,1.19-0.03,1.73h12.17
			c1.27,0,2.31,1.02,2.31,2.27v10.77c0.08,3.22-1.56,4.8-4.94,4.74h-1.51c-1.47,0-2.65-1.17-2.65-2.61l0,0h2.87
			c1.42,0.06,2.1-0.62,2.04-2.04v-9.19c0-0.75-0.62-1.36-1.38-1.36h-9.05c-0.35,6.15-2.86,10.93-7.53,14.35
			c-0.99,0.73-2.41,0.03-2.41-1.19l0,0c2.37-2.47,3.93-4.86,4.69-7.17c0.84-2.33,1.25-5.6,1.23-9.82v-3.47h-4.45
			C97.99,69.08,97.38,68.47,97.38,67.72z"/>
		<path class="st1" d="M129.72,66.87v-1.01h15.43c3.09,0.04,6.14-0.24,9.17-0.85l0,1.38c0,0.67-0.5,1.24-1.18,1.35
			c-0.99,0.16-1.91,0.27-2.77,0.35c-1.17,0.1-2.64,0.15-4.41,0.15h-2.13v2.13h11.95v1.04c0,0.75-0.62,1.36-1.38,1.36h-10.56v6.29
			c2.55,4.24,6.44,7.52,11.67,9.85l0,0c0,1.15-1.19,1.94-2.27,1.49c-4.16-1.74-7.3-3.79-9.4-6.14v6.63c0,0.75-0.62,1.36-1.38,1.36
			H140v-7.93c-2.05,2.3-5.18,4.32-9.37,6.08c-1.07,0.45-2.27-0.34-2.27-1.49l0,0c5.25-2.31,9.13-5.57,11.64-9.79v-6.35h-10.38
			c-0.76,0-1.38-0.61-1.38-1.36v-1.04H140v-2.13h-8.89C130.34,68.23,129.72,67.62,129.72,66.87z M128.61,76.35v-0.89h5.62v-1.79
			h1.52c1.02,0,1.85,0.81,1.85,1.82v3.68c0.06,2.45-1.2,3.65-3.8,3.59h-3.89c-0.76,0-1.38-0.61-1.38-1.36v-0.89h4.14
			c1.11,0.06,1.64-0.47,1.57-1.58v-1.22H130C129.23,77.71,128.61,77.1,128.61,76.35z M150.07,82.76c-2.61,0.06-3.89-1.13-3.83-3.59
			v-3.68c0-1,0.83-1.82,1.85-1.82h1.55v1.79h5.59v0.89c0,0.75-0.62,1.36-1.38,1.36h-4.2v1.22c-0.06,1.12,0.45,1.64,1.54,1.58h4.14
			v0.89c0,0.75-0.62,1.36-1.38,1.36H150.07z"/>
		<path class="st1" d="M159.94,67.23v-0.92h3.86v-1.79h2.41c0.76,0,1.38,0.61,1.38,1.36v0.43h10.37v-0.43
			c0-0.75,0.62-1.36,1.38-1.36h2.41v1.79h4.01v0.92c0,0.75-0.62,1.36-1.38,1.36h-2.63v9.45h4.85V79c0,0.75-0.62,1.36-1.38,1.36
			h-5.34c1.4,1.86,3.63,3.35,6.7,4.47v0c0,1.07-1.06,1.86-2.1,1.52c-1.65-0.53-3.05-1.13-4.2-1.8v1.46h-5.62v2.73h8.71
			c0.76,0,1.38,0.61,1.38,1.36v0.98h-23.8v-0.98c0-0.75,0.62-1.36,1.38-1.36h8.55v-2.73h-5.59v-1.46c-1.17,0.67-2.55,1.26-4.15,1.78
			c-1.06,0.34-2.15-0.41-2.15-1.51v0c3.03-1.09,5.26-2.58,6.7-4.47h-5.25c-0.76,0-1.38-0.61-1.38-1.36v-0.95h4.72V68.6h-2.47
			C160.56,68.6,159.94,67.99,159.94,67.23z M174.67,81.6v2.22h4.51c-1.3-0.91-2.46-2.07-3.49-3.47h-5.77
			c-1.09,1.46-2.26,2.61-3.52,3.47h4.51V81.6H174.67z M167.6,68.6v1.85h10.37V68.6H167.6z M167.6,72.39v1.85h10.37v-1.85H167.6z
			 M167.6,76.16v1.89h10.37v-1.89H167.6z"/>
		<path class="st1" d="M190.59,89.46V65.43h26.11v21.64c0.1,3.2-1.35,4.75-4.35,4.65H192.9C191.63,91.73,190.59,90.71,190.59,89.46z
			 M194.51,87.84c0,0.75,0.62,1.36,1.38,1.36h14.98c1.34,0.02,2-0.66,1.98-2.04V67.93h-18.34V87.84z M196.09,74.28v-1.1h5.71v-3.77
			h3.77v3.77h5.71v1.1c0,0.75-0.62,1.36-1.38,1.36h-4.33c0.04,4.01,1.96,7.29,5.77,9.82v0.26c0,1.04-1.13,1.69-2.06,1.19
			c-2.64-1.41-4.5-3.12-5.6-5.13c-1.06,2.02-2.9,3.74-5.54,5.14c-0.93,0.49-2.06-0.16-2.06-1.2l0-0.36c3.79-2.55,5.68-5.8,5.68-9.73
			h-4.3C196.71,75.65,196.09,75.04,196.09,74.28z"/>
		<path class="st1" d="M144.54,107.14c-0.82,0-1.55-0.14-2.16-0.42c-0.62-0.28-1.11-0.69-1.45-1.2c-0.34-0.52-0.52-1.13-0.52-1.81
			v-2.82c0-0.72,0.17-1.36,0.51-1.91c0.34-0.55,0.82-0.98,1.44-1.28c0.61-0.3,1.34-0.45,2.14-0.45c0.66,0,1.29,0.12,1.85,0.36
			c0.56,0.24,1.04,0.58,1.42,1.01c0.38,0.44,0.64,0.95,0.77,1.52l0.02,0.09h-1.89l-0.02-0.05c-0.09-0.31-0.25-0.57-0.46-0.79
			c-0.22-0.22-0.48-0.39-0.77-0.51c-0.3-0.12-0.61-0.18-0.92-0.18c-0.46,0-0.87,0.09-1.21,0.27c-0.34,0.18-0.61,0.44-0.8,0.76
			c-0.19,0.33-0.28,0.71-0.28,1.15v2.82c0,0.4,0.1,0.75,0.29,1.04c0.19,0.3,0.47,0.53,0.82,0.69c0.35,0.17,0.77,0.25,1.24,0.25
			c0.46,0,0.87-0.09,1.21-0.26c0.34-0.17,0.61-0.42,0.8-0.74c0.19-0.32,0.28-0.72,0.28-1.17c0-0.19-0.15-0.34-0.34-0.34h-1.99v-1.43
			h3.26c0.48,0,0.86,0.39,0.86,0.86v0.88c0,0.72-0.17,1.36-0.51,1.91c-0.34,0.55-0.82,0.98-1.44,1.28
			C146.07,106.99,145.35,107.14,144.54,107.14z"/>
		<path class="st1" d="M107.99,107.04c-0.47,0-0.85-0.38-0.85-0.85V98.2c0-0.47,0.38-0.85,0.85-0.85h6.66v1.42h-4.65
			c-0.61,0-1.11,0.5-1.11,1.11v1.64h4.89v1.42h-4.89v1.57c0,0.61,0.5,1.11,1.11,1.11h4.65v1.42H107.99z"/>
		<path class="st1" d="M151.7,107.04c-0.47,0-0.85-0.38-0.85-0.85V98.2c0-0.47,0.38-0.85,0.85-0.85h6.66v1.42h-4.65
			c-0.61,0-1.11,0.5-1.11,1.11v1.64h4.89v1.42h-4.89v1.57c0,0.61,0.5,1.11,1.11,1.11h4.65v1.42H151.7z"/>
		<path class="st1" d="M168.44,107.03c-0.51,0-1-0.24-1.31-0.65l-4.8-6.24v6.88h-1.74v-9.69h0.75c0.51,0,1.01,0.24,1.32,0.65
			l4.82,6.33v-6.99h1.74v9.69H168.44z"/>
		<path class="st1" d="M124.78,107.03c-0.51,0-1-0.24-1.31-0.65l-4.8-6.24v6.88h-1.74v-9.69h0.75c0.51,0,1.01,0.24,1.32,0.65
			l4.82,6.33v-6.99h1.74v9.69H124.78z"/>
		<path class="st1" d="M190.36,107.04v-6.36l-2.39,4.57c-0.15,0.29-0.44,0.46-0.77,0.46h-0.17c-0.32,0-0.61-0.17-0.76-0.46
			l-2.39-4.45v6.23h-1.72v-9.69h0.63c0.61,0,1.17,0.34,1.46,0.88l2.57,4.81c0.06,0.11,0.16,0.17,0.28,0.17
			c0.12,0,0.23-0.06,0.28-0.17l2.57-4.81c0.29-0.54,0.85-0.88,1.46-0.88h0.63v9.69H190.36z"/>
		<rect x="194.77" y="97.35" class="st1" width="1.76" height="9.69"/>
		<path class="st1" d="M203.05,107.14c-0.74,0-1.46-0.15-2.12-0.45c-0.6-0.28-1.08-0.71-1.43-1.28c-0.34-0.55-0.51-1.19-0.51-1.91
			v-2.62c0-0.72,0.17-1.36,0.51-1.91c0.34-0.55,0.82-0.98,1.43-1.28c0.61-0.3,1.33-0.45,2.13-0.45c0.66,0,1.28,0.12,1.84,0.36
			c0.56,0.24,1.04,0.58,1.41,1.01c0.38,0.44,0.64,0.95,0.77,1.52l0.02,0.09h-1.24c-0.3,0-0.58-0.16-0.73-0.41
			c-0.09-0.15-0.19-0.29-0.32-0.41c-0.23-0.23-0.5-0.4-0.8-0.53c-0.31-0.12-0.63-0.19-0.95-0.19c-0.45,0-0.86,0.09-1.2,0.27
			c-0.34,0.18-0.6,0.44-0.79,0.76c-0.19,0.33-0.28,0.71-0.28,1.15v2.62c0,0.43,0.1,0.82,0.28,1.15c0.19,0.33,0.45,0.58,0.79,0.76
			c0.34,0.18,0.74,0.27,1.2,0.27c0.33,0,0.65-0.06,0.96-0.17c0.3-0.11,0.57-0.29,0.8-0.51c0.13-0.13,0.24-0.27,0.33-0.43
			c0.14-0.26,0.43-0.42,0.74-0.42h1.23l-0.02,0.09c-0.13,0.57-0.39,1.09-0.77,1.52c-0.38,0.44-0.86,0.78-1.42,1.01
			C204.33,107.02,203.71,107.14,203.05,107.14z"/>
		<path class="st1" d="M97.28,98.87h2.8c0.24,0,0.43,0.19,0.43,0.43v7.73h1.9v-7.73c0-0.24,0.19-0.43,0.43-0.43h2.8v-1.53h-8.36
			V98.87z"/>
		<path class="st1" d="M135.1,107.04h2.29l-3.88-5.51c-0.12-0.17-0.1-0.39,0.04-0.54l3.35-3.64h-2.38l-3.52,4.09
			c-0.26,0.3-0.76,0.12-0.76-0.28v-3.8h-1.91v9.69h1.91v-2.12c0-0.22,0.08-0.43,0.23-0.59l1.19-1.29c0.19-0.2,0.51-0.18,0.67,0.04
			L135.1,107.04z"/>
		<path class="st1" d="M179.3,98.99c-0.33-0.53-0.81-0.94-1.42-1.23c-0.61-0.29-1.32-0.44-2.11-0.44c-0.8,0-1.5,0.15-2.11,0.44
			c-0.61,0.29-1.08,0.7-1.42,1.23c-0.33,0.53-0.5,1.15-0.5,1.85v2.71c0,0.7,0.17,1.32,0.5,1.85c0.33,0.53,0.81,0.94,1.42,1.23
			c0.61,0.29,1.32,0.44,2.11,0.44c0.8,0,1.5-0.15,2.11-0.44c0.61-0.29,1.08-0.7,1.42-1.23c0.33-0.53,0.5-1.15,0.5-1.85v-2.71
			C179.8,100.14,179.64,99.52,179.3,98.99z M178.12,103.07h-1.07c-0.22,0-0.4,0.18-0.4,0.4v2.02h-1.76v-2.02
			c0-0.22-0.18-0.4-0.4-0.4h-1.07v-1.76h1.07c0.22,0,0.4-0.18,0.4-0.4v-2.02h1.76v2.02c0,0.22,0.18,0.4,0.4,0.4h1.07V103.07z"/>
	</g>
	<g>
		<path class="st1" d="M13.04,68.99l25.99,35.77c0.43,0.59,1.3,0.59,1.73,0l4.82-6.63c0.54-0.75,0.54-1.76,0-2.51L25.63,68.17
			c-0.4-0.55-1.04-0.88-1.73-0.88h-10C13.03,67.3,12.53,68.28,13.04,68.99z"/>
		<path class="st1" d="M51.89,80.74l-0.17,0.23l-2.64,3.63l-1.4,1.93v0.01c-0.61,0.92-0.93,1.99-0.93,3.1c0,0.14,0.01,0.27,0.02,0.4
			l-0.29-0.4L29.48,66.22c-0.51-0.71-0.01-1.69,0.86-1.69h8.68c0.68,0,1.33,0.32,1.73,0.88L51.89,80.74z"/>
		<path class="st1" d="M59.25,98.13l4.82,6.63c0.43,0.59,1.3,0.59,1.73,0l25.99-35.77c0.51-0.7,0.01-1.69-0.86-1.69h-10
			c-0.68,0-1.32,0.33-1.73,0.88L59.25,95.63C58.71,96.37,58.71,97.39,59.25,98.13z"/>
		<path class="st1" d="M75.35,66.22L58.34,89.63l-0.29,0.4c0.01-0.14,0.02-0.27,0.02-0.4c0-1.13-0.34-2.22-0.96-3.15l-1.36-1.88
			l-2.64-3.63l-0.16-0.23L64.08,65.4c0.41-0.55,1.04-0.88,1.73-0.88h8.68C75.36,64.52,75.86,65.51,75.35,66.22z"/>
		<g>
			<g>
				<linearGradient id="SVGID_5_" gradientUnits="userSpaceOnUse" x1="47.6159" y1="102.5845" x2="57.2113" y2="102.5845">
					<stop  offset="0.15" style="stop-color:#FFFFFF"/>
					<stop  offset="0.85" style="stop-color:#FFFFFF"/>
				</linearGradient>
				<circle class="st10" cx="52.41" cy="102.58" r="4.8"/>
				<linearGradient id="SVGID_6_" gradientUnits="userSpaceOnUse" x1="47.6121" y1="87.9434" x2="57.2134" y2="87.9434">
					<stop  offset="0.15" style="stop-color:#FFFFFF"/>
					<stop  offset="0.85" style="stop-color:#FFFFFF"/>
				</linearGradient>
				<path class="st11" d="M52.41,94.42c1.5,0,2.89-0.68,3.8-1.87l0.17-0.24c0.54-0.79,0.82-1.73,0.82-2.69
					c0-0.96-0.28-1.89-0.82-2.68l-3.99-5.48l-3.98,5.48c-0.53,0.8-0.82,1.73-0.82,2.68c0,0.96,0.28,1.89,0.82,2.68l0.18,0.24
					C49.52,93.74,50.91,94.42,52.41,94.42z"/>
			</g>
		</g>
	</g>
</g>
<text transform="matrix(1 0 0 1 843.7181 101.2622)" class="st1 st4 st5">技术咨询：techsupport@10kgenomics.com</text>
<text transform="matrix(1 0 0 1 988.3881 79.9314)" class="st1 st4 st6">服务电话：021-64160323</text>
</svg>
